HIERARCHY
ROOT Hips
{
 OFFSET 0.000000 0.000000 0.000000
 CHANNELS 6 Xposition Yposition Zposition Yrotation Xrotation Zrotation
 JOINT Chest
 {
  OFFSET 0.000000 9.585900 0.002600
  CHANNELS 3 Yrotation Xrotation Zrotation
  JOINT Chest2
  {
   OFFSET 0.000000 9.601200 -0.005300
   CHANNELS 3 Yrotation Xrotation Zrotation
   JOINT Chest3
   {
    OFFSET 0.000000 9.561800 0.000000
    CHANNELS 3 Yrotation Xrotation Zrotation
    JOINT Chest4
    {
     OFFSET 0.000000 9.552100 0.000000
     CHANNELS 3 Yrotation Xrotation Zrotation
     JOINT Neck
     {
      OFFSET 0.000000 14.453000 0.000000
      CHANNELS 3 Yrotation Xrotation Zrotation
      JOINT Head
      {
       OFFSET 0.000000 8.936500 -0.011300
       CHANNELS 3 Yrotation Xrotation Zrotation
       End Site
       {
        OFFSET 0.000000 17.073600 -0.006000
       }
      }
     }
     JOINT RightCollar
     {
      OFFSET -2.921100 9.558500 0.000000
      CHANNELS 3 Yrotation Xrotation Zrotation
      JOINT RightShoulder
      {
       OFFSET -13.519700 0.000000 0.000000
       CHANNELS 3 Yrotation Xrotation Zrotation
       JOINT RightElbow
       {
        OFFSET 0.000000 -29.696600 0.000000
        CHANNELS 3 Yrotation Xrotation Zrotation
        JOINT RightWrist
        {
         OFFSET 0.000000 -24.004700 0.000000
         CHANNELS 3 Yrotation Xrotation Zrotation
         End Site
         {
          OFFSET 0.000000 -17.728500 0.000000
         }
        }
       }
      }
     }
     JOINT LeftCollar
     {
      OFFSET 2.921100 9.558500 0.000000
      CHANNELS 3 Yrotation Xrotation Zrotation
      JOINT LeftShoulder
      {
       OFFSET 13.519700 0.000000 0.000000
       CHANNELS 3 Yrotation Xrotation Zrotation
       JOINT LeftElbow
       {
        OFFSET 0.000000 -29.696600 0.000000
        CHANNELS 3 Yrotation Xrotation Zrotation
        JOINT LeftWrist
        {
         OFFSET 0.000000 -24.004700 0.000000
         CHANNELS 3 Yrotation Xrotation Zrotation
         End Site
         {
          OFFSET 0.000000 -17.728500 0.000000
         }
        }
       }
      }
     }
    }
   }
  }
 }
 JOINT RightHip
 {
  OFFSET -7.771700 -0.012900 -0.001300
  CHANNELS 3 Yrotation Xrotation Zrotation
  JOINT RightKnee
  {
   OFFSET 0.000000 -40.869800 0.001200
   CHANNELS 3 Yrotation Xrotation Zrotation
   JOINT RightAnkle
   {
    OFFSET 0.000000 -39.717900 0.002100
    CHANNELS 3 Yrotation Xrotation Zrotation
    JOINT RightToe
    {
     OFFSET 0.000000 -4.965400 11.033500
     CHANNELS 3 Yrotation Xrotation Zrotation
     End Site
     {
      OFFSET 0.000000 -1.423100 5.872300
     }
    }
   }
  }
 }
 JOINT LeftHip
 {
  OFFSET 7.771700 -0.012900 -0.001300
  CHANNELS 3 Yrotation Xrotation Zrotation
  JOINT LeftKnee
  {
   OFFSET 0.000000 -40.869800 0.001200
   CHANNELS 3 Yrotation Xrotation Zrotation
   JOINT LeftAnkle
   {
    OFFSET 0.000000 -39.717900 0.002100
    CHANNELS 3 Yrotation Xrotation Zrotation
    JOINT LeftToe
    {
     OFFSET 0.000000 -4.965400 11.033500
     CHANNELS 3 Yrotation Xrotation Zrotation
     End Site
     {
      OFFSET 0.000000 -1.423100 5.872300
     }
    }
   }
  }
 }
}
MOTION
Frames: 9
Frame Time: 0.008333
-55.750355 51.079924 48.218526 -177.502987 -34.625227 -9.873005 0.085591 13.451365 3.845756 -0.051634 7.679878 2.160118 -0.009850 9.565257 2.686669 -0.058651 7.686330 2.173479 3.824301 18.139297 -1.783385 4.490139 -6.500325 -2.779442 0.406298 2.351335 -1.956167 -18.168925 -4.947601 8.233688 8.833822 -73.523711 1.430476 9.740306 -13.533406 -13.585407 -8.020535 4.064375 -3.429271 5.971699 -2.430491 -2.917000 -54.623188 -79.536744 60.434148 14.434473 -13.186153 -3.582404 -13.123772 -31.731666 -0.367756 -4.775052 83.358164 -8.482988 1.904141 -14.174953 4.796073 0.005414 0.223398 -0.087194 -12.809871 -45.264000 12.096576 173.577208 78.060521 168.231771 -2.360124 -18.342872 2.633204 0.026723 -0.053840 -0.007962
-55.743017 51.134987 48.201134 -177.495487 -34.513542 -9.882169 0.047072 13.432074 3.888923 -0.058478 7.669943 2.160814 -0.018428 9.552971 2.687367 -0.059667 7.665212 2.162581 3.866848 18.132295 -1.866225 4.556611 -6.503040 -2.878810 0.429670 2.347338 -1.982909 -18.152671 -4.925843 8.225979 9.112557 -73.504354 1.222797 9.770562 -13.577051 -13.461556 -8.060499 4.066592 -3.435975 6.014895 -2.477993 -2.943594 -54.253792 -79.567992 59.962265 14.429245 -13.188618 -3.463739 -13.271512 -31.883009 -0.376417 -4.345574 83.512264 -8.039286 1.963534 -14.317618 4.693493 -0.021190 0.217100 -0.068804 -12.864117 -45.329525 12.111206 173.369159 78.090391 168.050227 -2.363715 -18.289641 2.608022 0.034558 -0.106574 -0.013591
-55.739538 51.219226 48.192473 -177.492597 -34.355183 -9.864524 0.005843 13.360343 3.904819 -0.061071 7.645628 2.153559 -0.030961 9.557078 2.696746 -0.058617 7.635706 2.145835 3.889404 18.118864 -1.918075 4.638813 -6.486767 -2.995644 0.446183 2.327992 -2.008371 -18.122836 -4.876289 8.217525 9.357636 -73.485719 1.036862 9.796803 -13.627685 -13.355334 -8.097845 4.059913 -3.445696 6.010783 -2.503229 -2.920704 -53.693397 -79.667680 59.377408 14.421943 -13.181236 -3.396444 -13.408943 -32.126208 -0.392521 -3.990658 83.717925 -7.683964 1.983836 -14.523244 4.603895 -0.057951 0.213876 -0.039631 -12.951328 -45.426698 12.125516 173.163948 78.149955 167.834289 -2.335817 -18.217325 2.581380 0.019603 -0.162846 -0.022218
-55.727740 51.345578 48.184978 -177.444314 -34.207021 -9.916433 -0.048773 13.284984 3.958347 -0.067165 7.638583 2.154080 -0.038578 9.548367 2.697311 -0.057525 7.598841 2.124646 3.907848 18.125555 -1.946938 4.715139 -6.466274 -3.105999 0.460062 2.358447 -2.003576 -18.087714 -4.858812 8.206014 9.540427 -73.470194 0.898326 9.814896 -13.680897 -13.263732 -8.131643 4.066670 -3.444871 5.991699 -2.524301 -2.870100 -53.200356 -79.775189 58.868195 14.442996 -13.176012 -3.351262 -13.576312 -32.373595 -0.332839 -3.914672 83.960554 -7.619800 1.956873 -14.744313 4.565346 -0.032250 0.271768 -0.030541 -13.155069 -45.473026 12.173327 172.692999 78.227969 167.372533 -2.278915 -18.080453 2.495097 -0.009814 -0.278311 -0.037029
-55.705658 51.512771 48.179868 -177.369302 -34.065404 -10.031042 -0.108433 13.219697 4.060099 -0.072520 7.631185 2.153499 -0.045160 9.515481 2.686037 -0.065641 7.615416 2.141804 3.943027 18.122357 -2.020425 4.764959 -6.459337 -3.183409 0.487221 2.350465 -2.025830 -18.046839 -4.833119 8.194889 9.653209 -73.456703 0.814347 9.820289 -13.735364 -13.185749 -8.134549 4.028823 -3.468698 5.978294 -2.534996 -2.838033 -52.979643 -79.847534 58.583629 14.470705 -13.190552 -3.304354 -13.746677 -32.630154 -0.234155 -3.957338 84.228252 -7.641469 1.967070 -14.911381 4.526326 -0.019432 0.284836 -0.026104 -13.359583 -45.482986 12.279334 172.362138 78.343145 167.077076 -2.235686 -17.896282 2.422623 -0.028428 -0.432409 -0.041820
-55.673505 51.711687 48.179143 -177.297794 -33.920452 -10.182727 -0.160950 13.119330 4.188463 -0.073387 7.641323 2.158206 -0.051764 9.496953 2.681415 -0.070321 7.672067 2.167420 4.004779 18.123982 -2.140041 4.774181 -6.495187 -3.207467 0.510557 2.303352 -2.057723 -18.031046 -4.837656 8.192043 9.713990 -73.413181 0.802840 9.814963 -13.791977 -13.117967 -8.174885 3.964723 -3.490444 6.005564 -2.565678 -2.826968 -52.999467 -79.885192 58.538717 14.502155 -13.221096 -3.274462 -13.986086 -32.882363 -0.056461 -3.807862 84.483288 -7.500064 1.973025 -15.059499 4.479009 -0.006886 0.303219 -0.026599 -13.580261 -45.473053 12.436571 172.006322 78.480475 166.768126 -2.182089 -17.644026 2.354572 -0.061448 -0.649070 -0.054071
-55.630792 51.933839 48.176630 -177.253214 -33.820152 -10.358748 -0.165697 13.099978 4.374407 -0.084031 7.581993 2.136265 -0.050418 9.530249 2.693667 -0.063011 7.665421 2.159304 4.030453 18.127109 -2.186348 4.813723 -6.488540 -3.263753 0.535092 2.313096 -2.060103 -17.979422 -4.829095 8.185148 9.655794 -73.413707 0.859803 9.803974 -13.843804 -13.058136 -8.259459 3.955642 -3.512385 6.056225 -2.620928 -2.798802 -53.205647 -79.886043 58.694251 14.537163 -13.262248 -3.262656 -14.225418 -33.067106 0.215262 -4.092163 84.692981 -7.841618 1.985506 -15.144704 4.469352 -0.024138 0.295787 -0.032344 -13.817126 -45.406775 12.631200 171.560115 78.619575 166.363805 -2.059429 -17.333770 2.299237 -0.155940 -0.926464 -0.108559
-55.578549 52.162053 48.176177 -177.244661 -33.734713 -10.545760 -0.127498 13.084744 4.588441 -0.089036 7.566231 2.133550 -0.029947 9.566157 2.697234 -0.072693 7.614104 2.145890 4.052113 18.134223 -2.222812 4.846541 -6.478104 -3.308573 0.535571 2.298860 -2.061692 -17.913087 -4.803107 8.171852 9.532061 -73.415499 0.979521 9.791265 -13.882584 -13.006392 -8.294807 3.924531 -3.516772 6.054622 -2.648524 -2.782018 -53.566460 -79.859652 59.036308 14.573250 -13.304732 -3.290938 -14.389333 -33.195508 0.504633 -4.528268 84.835618 -8.270891 1.965381 -15.207754 4.451496 -0.021359 0.298609 -0.033095 -14.068714 -45.338751 12.841575 170.867217 78.731267 165.741689 -1.894911 -16.991043 2.198335 -0.292424 -1.238253 -0.171087
-55.521405 52.384881 48.174946 -177.250615 -33.675857 -10.731282 -0.068344 13.075756 4.799828 -0.093856 7.563652 2.132855 -0.031527 9.538248 2.690791 -0.053513 7.631630 2.143495 4.068900 18.145174 -2.249672 4.836333 -6.499693 -3.309833 0.516847 2.271379 -2.058960 -17.860949 -4.779576 8.154808 9.390118 -73.409032 1.136613 9.780733 -13.902445 -12.965730 -8.337851 3.892958 -3.518496 6.062934 -2.664870 -2.769355 -54.073421 -79.825849 59.550498 14.604990 -13.340430 -3.359485 -14.524322 -33.254440 0.806675 -5.234593 84.908922 -8.968299 1.956089 -15.245134 4.440149 -0.023276 0.292824 -0.029402 -14.270374 -45.248164 13.079032 170.455046 78.855686 165.385043 -1.734182 -16.662194 2.141953 -0.426880 -1.534126 -0.231188
